# xmcd
#
# Track frame offsets:
#	150
#	16301
#	39311
#
# Disc length: 736 seconds
#
# Revision: 0
# Processed by: cddbd v1.5.2PL0 Copyright (c) Steve Scherf et al.
# Submitted via: audiograbber 1.83.01
#
DISCID=1702de03
DTITLE=Mary Roos - Maxi CD - Vorsicht zerbrechlich (LC 08744)
DYEAR=2000
DGENRE=Deutsch
TTITLE0=Vorsicht zerbrechlich
TTITLE1=Vorsicht zerbrechlich (Remix Version)
TTITLE2=Ich kann tun, was ich will
EXTD=
EXTT0=
EXTT1=
EXTT2=
PLAYORDER=
